<svg xmlns="http://www.w3.org/2000/svg" xmlns:xlink="http://www.w3.org/1999/xlink" width="275" height="348.69" viewBox="0 0 275 348.69"><defs><style>.cls-1{isolation:isolate;}.cls-2,.cls-28{opacity:0.25;}.cls-3{fill:#e6e6e6;}.cls-4,.cls-62{opacity:0.15;}.cls-5{fill:url(#Blue_Sky);}.cls-6{fill:#486ed1;}.cls-7{fill:#efe0d3;}.cls-8{fill:#e2d0c3;}.cls-9{fill:#2e55aa;}.cls-10{fill:#168391;}.cls-11{fill:#7ea1ed;}.cls-12{fill:#628ad3;}.cls-13{fill:#285699;}.cls-14{fill:#1fb8cc;}.cls-15{fill:#45446c;}.cls-16{fill:#3b3b60;}.cls-17{fill:#6984f4;}.cls-18{fill:#7a8eff;}.cls-19{fill:#5977d8;}.cls-20{fill:#ffdd4d;}.cls-21{fill:#f0a32f;}.cls-22{fill:#ffd22e;}.cls-23{fill:#f8c22e;}.cls-24{fill:#70403e;}.cls-25{fill:#4f2d2b;}.cls-26{fill:url(#linear-gradient);}.cls-27,.cls-28{fill:#f2c777;mix-blend-mode:multiply;}.cls-27{opacity:0.45;}.cls-29{fill:#ffaa81;}.cls-30{fill:#fac4a0;}.cls-31{fill:#fe912a;}.cls-32{fill:#fcbd24;}.cls-33{fill:#b28767;}.cls-34{fill:#bc9371;}.cls-35{fill:#4040a0;}.cls-36{fill:#f4c42a;}.cls-37{fill:#b55226;}.cls-38{fill:#894d2f;}.cls-39{fill:#1995ad;}.cls-40{fill:#8e6549;}.cls-41{fill:#a7c4e4;}.cls-42{fill:#cca587;}.cls-43{fill:#915151;}.cls-44{fill:#492817;}.cls-45{fill:#754029;}.cls-46{fill:#140a0a;}.cls-47{fill:#b96c4a;}.cls-48{fill:#d1e7f4;}.cls-49{fill:#5985fe;}.cls-50{fill:#006837;}.cls-51{fill:#06723c;}.cls-52{fill:#4c2617;}.cls-53{fill:#2c2b57;}.cls-54{fill:#d0d3d8;}.cls-55{fill:#230e04;}.cls-56{fill:#f55d34;}.cls-57{fill:#db4928;}.cls-58{fill:#d67c5a;}.cls-59{fill:#c46f55;}.cls-60{fill:#143b63;}.cls-61{fill:#bac8d3;}.cls-62{fill:url(#Blue_Sky-2);}</style><linearGradient id="Blue_Sky" x1="16.02" y1="136.98" x2="267.42" y2="136.98" gradientUnits="userSpaceOnUse"><stop offset="0" stop-color="#3ddeed"/><stop offset="1" stop-color="#3ddeed"/></linearGradient><linearGradient id="linear-gradient" x1="-2717.46" y1="116.24" x2="-2699.24" y2="116.24" gradientTransform="matrix(-1, 0, 0, 1, -2572.19, 0)" gradientUnits="userSpaceOnUse"><stop offset="0" stop-color="#f2c777"/><stop offset="0.55" stop-color="#f5ac48"/><stop offset="1" stop-color="#f7931e"/></linearGradient><linearGradient id="Blue_Sky-2" x1="88.39" y1="265.37" x2="103.74" y2="265.37" gradientTransform="translate(136.67 -13.92) rotate(28.17)" xlink:href="#Blue_Sky"/></defs><title>Asset 6</title><g class="cls-1"><g id="Layer_2" data-name="Layer 2"><g id="Layer_1-2" data-name="Layer 1"><g class="cls-2"><ellipse class="cls-3" cx="68" cy="313.36" rx="58.57" ry="15.97"/><ellipse class="cls-3" cx="107.25" cy="315.95" rx="58.57" ry="29.36"/><ellipse class="cls-3" cx="222.12" cy="312.67" rx="51.02" ry="23.65"/><ellipse class="cls-3" cx="167.19" cy="318.85" rx="60.94" ry="29.83"/></g><g class="cls-4"><path class="cls-5" d="M16.15,140.39h99.91c8.26,0,8.25-12.35,0-12.35H17.71a42.93,42.93,0,0,1,3.19-9.43c3.75-7.69,9.82-13,16.15-16.9a83.62,83.62,0,0,1,21.81-9.23A61,61,0,0,1,70.22,64.3a77.22,77.22,0,0,1,9.66-10.85H173c6,0,6-9,0-9H91.62a83.28,83.28,0,0,1,16-7.78h94.6a81.26,81.26,0,0,1,27.38,20.5A72.08,72.08,0,0,1,239,70.44H223.4c-8.26,0-8.25,12.35,0,12.35h19.3a7.32,7.32,0,0,0,1.27-.11A46.62,46.62,0,0,1,245.66,99a43.32,43.32,0,0,1-2.81,12.26,63.12,63.12,0,0,1,11.68,11.85c10.3,13.67,15.87,34.39,11.24,52.54a51.11,51.11,0,0,1-2.09,6.41H199.86c-8.26,0-8.25,12.35,0,12.35H257A91.74,91.74,0,0,1,246.19,207,142.94,142.94,0,0,1,201,237.29H70.78a72.33,72.33,0,0,1-18-11,81.47,81.47,0,0,1-6.43-6.08H74.16c8.26,0,8.25-12.35,0-12.35H35.57l-.58-.69c-5.42-6.58-11-13.35-14.26-22-3.58-9.38-4.21-20.15-4.56-30.61C16,149.92,15.93,145.12,16.15,140.39Z"/></g><path class="cls-6" d="M252.63,252.42H16v4.18h2.46a12.1,12.1,0,0,1,12.24,12v8.71a12.1,12.1,0,0,1-12.24,12H16v4.17H252.63a15.19,15.19,0,0,0,15.37-15V267.44A15.2,15.2,0,0,0,252.63,252.42Z"/><path class="cls-7" d="M123.36,256.61H19.13c4.65,1.82,9.42,6.23,9.42,11.39V277c0,6.78-4.36,12.28-9.42,12.28H123.36a12.15,12.15,0,0,0,12.34-12v-8.72A12.15,12.15,0,0,0,123.36,256.61Z"/><path class="cls-8" d="M28.55,272.28V277c0,6.78-4.36,12.28-9.42,12.28H123.36a12.15,12.15,0,0,0,12.34-12v-5Z"/><path class="cls-9" d="M124.8,252.43H16v4.19H123.36a12.15,12.15,0,0,1,12.34,11.95v8.72a12.15,12.15,0,0,1-12.34,11.95H16v4.17H124.8a15.26,15.26,0,0,0,15.5-15V267.45A15.26,15.26,0,0,0,124.8,252.43Z"/><path class="cls-9" d="M252.63,252.42H200.8C199.68,259,196,265,191.74,270.15c-7.32,8.91-16.83,16.53-26.71,23.25h87.6a15.19,15.19,0,0,0,15.37-15V267.44A15.2,15.2,0,0,0,252.63,252.42Z"/><path class="cls-10" d="M48.66,286.76s3.67-.83,3.67-3.65V272.28H42v10.47c0,3.18-3.44,4-3.44,4s5.44.31,8-2.52A6.85,6.85,0,0,1,48.66,286.76Z"/><path class="cls-11" d="M28.18,247c.83,2.91,2.51,5.47,5.61,5.47H255.57v-35H33.79c-3.1,0-5.73,5.54-7.1,11.42C26.69,228.87,25.16,236.41,28.18,247Z"/><path class="cls-12" d="M100.72,217.45c-11.17,15.14-26.07,26.67-42.92,35H253.85v-35Z"/><path class="cls-13" d="M124,244.83c.25,4.95,1.53,7.59,7.57,7.59H262.17V250h-9.58L250.7,219.9h11.47v-2.45H131.61c-6,0-6.77,3-7.51,10.42A144.63,144.63,0,0,0,124,244.83Z"/><path class="cls-7" d="M128.17,243.44c.21,4.26,1.31,6.53,6.5,6.53H256.83V219.9H134.67c-5.19,0-5.82,2.58-6.45,9A124.57,124.57,0,0,0,128.17,243.44Z"/><path class="cls-9" d="M67.8,167.69c.52,3.11,1.57,5.85,3.51,5.85H206.73V136.16H71.31c-1.94,0-3.58,5.91-4.44,12.21A75.65,75.65,0,0,0,67.8,167.69Z"/><path class="cls-6" d="M113.11,136.16c-7,16.18-16.28,28.51-26.81,37.38H205.77V136.16Z"/><path class="cls-9" d="M127.68,165.42c.16,5.29,1,8.12,4.73,8.12H214v-3.79h-6.49V140H214v-3.79H132.41c-3.77,0-4.23,3.21-4.69,11.14C127.72,147.3,127.37,154.79,127.68,165.42Z"/><path class="cls-7" d="M134.14,163.28c.13,4.22.76,6.47,3.77,6.47h72.66V140H137.91c-3,0-3.37,2.56-3.74,8.88C134.17,148.83,133.89,154.8,134.14,163.28Z"/><path class="cls-8" d="M134.44,150.31a1.65,1.65,0,0,1-.32,0c-.06,2.25-.15,7,0,13,.13,4.22.76,6.47,3.77,6.47h72.66V150.31Z"/><polygon class="cls-14" points="146.51 150.27 146.51 166.07 149.33 162.95 152.16 166.07 152.16 150.27 146.51 150.27"/><path class="cls-15" d="M273.14,311.37a5.68,5.68,0,0,1-5.56,3.29H2.17V293.6H267.58c3.07,0,5.68,3.34,7,6.88C274.62,300.48,276.13,305,273.14,311.37Z"/><path class="cls-16" d="M159.89,293.6c11.05,9.12,25.81,16.06,42.5,21.06H2.17V293.6Z"/><path class="cls-16" d="M136.79,310.09c-.25,3-1.51,4.57-7.5,4.57H0v-.8l9.42-.08,2-19.32L0,294.49v-.89H129.29c6,0,6.71,1.81,7.44,6.28A52.52,52.52,0,0,1,136.79,310.09Z"/><path class="cls-7" d="M135.1,309.59c-.23,2.73-1.39,4.19-6.87,4.19H1.45v-19.3H128.23c5.48,0,6.14,1.66,6.81,5.75A48.69,48.69,0,0,1,135.1,309.59Z"/><path class="cls-8" d="M134.55,301.19l.58,0a52.31,52.31,0,0,1,0,8.42c-.23,2.73-1.39,4.19-6.87,4.19H1.45V301.19Z"/><path class="cls-17" d="M52.9,210.58c.62,3.65,1.88,6.87,4.19,6.87H220V173.54H57.09c-2.31,0-4.28,7-5.3,14.34A87.19,87.19,0,0,0,52.9,210.58Z"/><path class="cls-18" d="M100.37,173.54a104.12,104.12,0,0,1-6,9.9c-4,5.92-7.88,11.93-11.87,17.64s-8,11.17-12.07,16.37H220V173.54Z"/><path class="cls-19" d="M124.44,207.92c.19,6.2,1.14,9.53,5.65,9.53h96.12v-4.4h-7.88V177.46h7.88v-3.92H130.09c-4.51,0-5,3.77-5.6,13.09C124.49,186.63,124.07,195.43,124.44,207.92Z"/><path class="cls-7" d="M129.23,205.35c.17,5,1,7.72,5.14,7.72h88.69V177.49H134.37c-4.1,0-4.6,3-5.1,10.6C129.27,188.09,128.89,195.22,129.23,205.35Z"/><path class="cls-8" d="M129.64,189.86a2,2,0,0,1-.44-.05c-.09,2.69-.21,8.35,0,15.54.17,5,1,7.72,5.14,7.72h88.69V189.86Z"/><path class="cls-20" d="M115.29,46.32c-16-4-22.67-14.91-25.45-23.39A46.35,46.35,0,0,1,87.68,5.56,2.87,2.87,0,0,1,90.53,3h12.63V8.72H93.31a42.27,42.27,0,0,0,2,12.6c3.41,10.23,10.59,16.77,21.32,19.43Z"/><path class="cls-21" d="M157,46.32l-1.39-5.57c10.74-2.66,17.91-9.2,21.32-19.43a41.63,41.63,0,0,0,2-12.6h-9.85V3h12.63a2.86,2.86,0,0,1,2.85,2.58,46.11,46.11,0,0,1-2.16,17.37C179.7,31.41,173,42.35,157,46.32Z"/><polygon class="cls-22" points="145.69 96.34 126.64 96.34 128.56 64.36 143.76 64.36 145.69 96.34"/><path class="cls-21" d="M131.12,73.16c2,3.84,7.46,8.18,11.33,9,2.67.56,2.17-3.25,2.1-4.6q-.39-6.6-.79-13.2c-4.92,0-10.27-.58-15.11.07A24.32,24.32,0,0,0,131.12,73.16Z"/><rect class="cls-23" x="116.61" y="92.33" width="39.1" height="8.02"/><path class="cls-21" d="M141,98.88l.08,0q2.55.75,5.11,1.45h9.5v-8H128.64C132.77,94.5,136.8,96.89,141,98.88Z"/><rect class="cls-24" x="108.39" y="98.19" width="55.54" height="38.02" rx="0.93"/><path class="cls-25" d="M160.37,126.5A214.73,214.73,0,0,1,135.56,114c-7.27-4.2-27.17-15.41-27.17-14.89v36.15a.93.93,0,0,0,.93.93H163a.93.93,0,0,0,.93-.93v-6.73a.92.92,0,0,0-.6-.87C162.33,127.3,161.35,126.91,160.37,126.5Z"/><circle class="cls-21" cx="136.16" cy="117.2" r="13.08"/><path class="cls-26" d="M135.84,107.76l-2.38,4.81a1,1,0,0,1-.79.57l-5.31.77a.37.37,0,0,0-.2.62l3.84,3.75a1,1,0,0,1,.3.93l-.9,5.28a.36.36,0,0,0,.52.39l4.75-2.5a1.06,1.06,0,0,1,1,0l4.75,2.5a.36.36,0,0,0,.52-.39l-.9-5.28a1,1,0,0,1,.3-.93l3.84-3.75a.36.36,0,0,0-.2-.62l-5.31-.77a1,1,0,0,1-.79-.57l-2.37-4.81A.36.36,0,0,0,135.84,107.76Z"/><path class="cls-20" d="M136,108.09l-1.4,5a1.73,1.73,0,0,1-1.72,1.25l-5.17-.2a.2.2,0,0,0-.12.37l4.3,2.88a1.71,1.71,0,0,1,.65,2l-1.79,4.85a.21.21,0,0,0,.33.24l4.06-3.2a1.71,1.71,0,0,1,2.12,0l4.07,3.2a.21.21,0,0,0,.32-.24l-1.79-4.85a1.72,1.72,0,0,1,.66-2l4.3-2.88a.2.2,0,0,0-.13-.37l-5.16.2a1.71,1.71,0,0,1-1.72-1.25l-1.41-5A.21.21,0,0,0,136,108.09Z"/><path class="cls-27" d="M126.8,114.18a.11.11,0,0,1,.06-.19l2.65-.39a28,28,0,0,0,12.21,9.69L142,125a.12.12,0,0,1-.17.12l-5.3-2.79a.83.83,0,0,0-.75,0l-5.31,2.79a.12.12,0,0,1-.17-.12l1-5.91a.84.84,0,0,0-.23-.71Z"/><path class="cls-28" d="M129.51,113.6l1.82-.26c2.33,3.45,6.63,5.53,9.82,6.66l.57,3.29A28,28,0,0,1,129.51,113.6Z"/><path class="cls-20" d="M103,0a1.45,1.45,0,0,0-1.46,1.45v0c0,36.49,15.51,66.08,34.65,66.08S170.82,38,170.82,1.47v0A1.46,1.46,0,0,0,169.36,0Z"/><path class="cls-22" d="M169.36,0H115a1.47,1.47,0,0,0-1.46,1.51c.52,12.76,2.49,25.65,8.66,36.92,2.3,4.2-4.13,8-6.43,3.75C109,29.71,106.72,15.5,106.15,1.41A1.47,1.47,0,0,0,104.69,0H103a1.45,1.45,0,0,0-1.46,1.45v0c0,36.49,15.51,66.08,34.65,66.08S170.82,38,170.82,1.47v0A1.46,1.46,0,0,0,169.36,0Z"/><path class="cls-23" d="M169.36,0H154.15a96.62,96.62,0,0,1,.27,20.4c-.84,8.55-2.26,17.69-6.73,25.21A31.44,31.44,0,0,1,130,59.49a37.13,37.13,0,0,1-8.82,1.62c4.53,4.12,9.59,6.44,14.94,6.44,19.14,0,34.66-29.59,34.66-66.08v0A1.46,1.46,0,0,0,169.36,0Z"/><path class="cls-29" d="M236.63,127.72a.22.22,0,0,1,.14.17v0a.07.07,0,0,1-.06,0,.4.4,0,0,0-.22.27l-.07.17a.41.41,0,0,1,0,.09.38.38,0,0,1-.2.1.24.24,0,0,1-.19,0c-.07-.05,0-.15,0-.23a.93.93,0,0,1,.27-.47C236.33,127.79,236.51,127.68,236.63,127.72Z"/><path class="cls-30" d="M233,129c.11-.2.2-.39.29-.57a11.45,11.45,0,0,1,1.9.87l-.51.68s-1.61,6.23-1.2,8.36a.34.34,0,0,0-.06.12c4.1-1.6,11.13-5.45,11.13-5.45s2.63,0,2.89,2-2.94,3.63-2.94,3.63-6.45,4-11.49,5l-.38-.06a5,5,0,0,1-2.34-1,2.2,2.2,0,0,1-.78-1.63C228.12,137.22,231.9,131,233,129Z"/><path class="cls-29" d="M233,128.79a2.3,2.3,0,0,0,0-.26,1.63,1.63,0,0,1,.2-.79,11.08,11.08,0,0,1,.57-1,.82.82,0,0,1,.34-.35.39.39,0,0,1,.49.16.43.43,0,0,1,.65.14c.08-.11.16-.14.38,0a.54.54,0,0,1,.21.27.38.38,0,0,1,.48.15,1.22,1.22,0,0,1,.12.68,3,3,0,0,1-.21.8c-.05.13-.11.26-.17.38s-.11.25-.21.29a2.2,2.2,0,0,1-.37.06,1,1,0,0,0-.47.25,1.65,1.65,0,0,0-.39.48c0,.07-.11.42-.14.4-.44-.22-1.74-.91-1.62-1.15A1.12,1.12,0,0,0,233,128.79Z"/><path class="cls-31" d="M231.94,126.6l.58-2a.81.81,0,0,1,1-.54l4.17,1.13a.79.79,0,0,1,.56,1l-.59,2a.81.81,0,0,1-1,.54l-4.17-1.13A.79.79,0,0,1,231.94,126.6Zm1.42-2a.21.21,0,0,0-.27.15l-.59,2a.22.22,0,0,0,.15.26l4.17,1.13a.21.21,0,0,0,.27-.15l.59-2a.22.22,0,0,0-.16-.27Z"/><polygon class="cls-32" points="229.85 117 230.81 117.5 228.48 125.64 227.39 125.57 229.85 117"/><path class="cls-23" d="M242.24,126.31a6.81,6.81,0,0,0,.45-1.2,7,7,0,0,0,.25-1.25c0-.27,0-.44-.06-.47l.36.13c.15,0,.07.81-.19,1.69s-.58,1.58-.74,1.54l-.37-.08C242,126.69,242.12,126.55,242.24,126.31Z"/><path class="cls-31" d="M242.16,125c-.26.92-.35,1.68-.2,1.72s.48-.67.74-1.56.35-1.67.2-1.72S242.42,124.05,242.16,125Z"/><path class="cls-31" d="M242.78,123.74l-.37,1.29a6.93,6.93,0,0,0,.26-1.35Z"/><path class="cls-31" d="M242,126.45h-.16a5.64,5.64,0,0,0,.57-1.41Z"/><path class="cls-23" d="M231.44,122.08a19.67,19.67,0,0,1-1.4,3.65l2.49.15,7.21.44,1.66.1a2.62,2.62,0,0,0,.17-.27,7.11,7.11,0,0,0,.45-1.22,6.14,6.14,0,0,0,.26-1.28.92.92,0,0,0,0-.16l-10.11-5.28A19.82,19.82,0,0,1,231.44,122.08Z"/><path class="cls-31" d="M238.48,126.25l1.89.11a1.91,1.91,0,0,0,.19-.31,7.78,7.78,0,0,0,.52-1.39,8.15,8.15,0,0,0,.3-1.45,1.15,1.15,0,0,1,0-.19l-1.69-.88-.07,0A11.73,11.73,0,0,1,238.48,126.25Z"/><path class="cls-31" d="M230.81,117.5l1.37.71a22.16,22.16,0,0,1-2.14,7.52l-1.56-.09Z"/><path class="cls-23" d="M242,124.93a6.14,6.14,0,0,0,.26-1.28.92.92,0,0,0,0-.16h0l.35.18a6.93,6.93,0,0,1-.26,1.35,5.64,5.64,0,0,1-.57,1.41l-.35,0h-.09a2.62,2.62,0,0,0,.17-.27A7.11,7.11,0,0,0,242,124.93Z"/><polygon class="cls-23" points="230.2 115.77 229.96 116.62 229.85 117 227.39 125.57 227.2 126.22 227.04 126.8 224.99 126.51 225.3 125.45 228 116.03 228.3 114.97 230.2 115.77"/><path class="cls-23" d="M227.14,120.88c-.9,3.15-.93,5.8-.1,5.92s2.11-2.19,3-5.13.94-5.58.2-5.9S228.05,117.72,227.14,120.88Z"/><path class="cls-23" d="M225,120.29c-.95,3.31-.95,6.09,0,6.22s2.28-2.27,3.17-5.35,1-5.85.14-6.19S226,117,225,120.29Z"/><path class="cls-21" d="M225.44,120.34c-.89,3.08-1.07,5.66-.42,5.75s1.8-2.2,2.64-5.13,1.06-5.49.48-5.74S226.32,117.26,225.44,120.34Z"/><path class="cls-29" d="M233.54,127.39a2.78,2.78,0,0,1,.21-.71.08.08,0,0,1,0-.05,8.33,8.33,0,0,0,2.56.79h0a.49.49,0,0,0,0,.27c-.12.21-.24.42-.36.61a.79.79,0,0,1-.32.31.38.38,0,0,1-.45-.14.41.41,0,0,1-.6-.13c-.08.1-.15.12-.35,0,0,0-.19-.15-.2-.24a.36.36,0,0,1-.44-.13A1.17,1.17,0,0,1,233.54,127.39Z"/><path class="cls-33" d="M245,209.89h.24a3.3,3.3,0,0,0,1.21-.15,3,3,0,0,0,.36-.17c-.81-6.91-2.05-22.82.72-28.47a147.53,147.53,0,0,0,8.9-22.64L245.3,156c-.25,12-7.89,22.68-7.61,27.94.24,4.27,3.93,18.82,5.73,25.69C244,209.74,244.49,209.84,245,209.89Z"/><path class="cls-34" d="M257.13,208.74a5.06,5.06,0,0,0,2.94-.88c-.32-1.87-.66-3.47-.86-4.13-.28-.93-.54-1.86-.8-2.79-.13-.47-.25-.93-.37-1.4a4.35,4.35,0,0,1-.34-1.33A48.56,48.56,0,0,1,256,186.54a11.26,11.26,0,0,1,.85-4.8,73,73,0,0,0,7-24.86l-11.7-1c-.39,2.83-4.63,23.84-3.42,29a74.29,74.29,0,0,0,3.63,12.3q1.62,3.81,3.3,7.6C256.21,206.15,256.7,207.44,257.13,208.74Z"/><path class="cls-30" d="M258,211.93c-.24-1.1-.52-2.15-.86-3.2a9.84,9.84,0,0,0,2.95-.85c.22,1.28.43,2.69.59,4C259.78,211.86,258.88,211.88,258,211.93Z"/><path class="cls-22" d="M248.67,132.79a4.87,4.87,0,0,1-.32-2.61s-5.5,3.16-8.4,5.21a4.93,4.93,0,0,0,.43,2.84,5.3,5.3,0,0,0,1.47,2,54.58,54.58,0,0,1,4.84-2.92S249.25,134.66,248.67,132.79Z"/><path class="cls-35" d="M241,134.69c-.37.24-.72.48-1,.7a4.93,4.93,0,0,0,.43,2.84,5.3,5.3,0,0,0,1.47,2l1-.68A7.83,7.83,0,0,1,241,134.69Z"/><path class="cls-22" d="M261.84,142.84c-2.16-9-.1-10.21-2.66-11.57-3-1.31-7.7-2.06-10.83-1.09-.82.25-4,6.55-3.27,10.8.9,5-.17,16.39-.17,16.39,7.79,4.23,19,.36,19,.36A71.54,71.54,0,0,0,261.84,142.84Z"/><path class="cls-36" d="M261.84,142.84c-2.16-9,.15-10.06-2.42-11.42,0,0-1.47.2-1.5,1-.22,6.55-1.59,12.95-2.51,19.41a20.15,20.15,0,0,1-2.58,7.55,34.3,34.3,0,0,0,11.09-1.6A71.54,71.54,0,0,0,261.84,142.84Z"/><path class="cls-35" d="M250.61,129.77s-1.81,1.62-1.62,3c.19.56,2.56-.88,2.56-.88a10.13,10.13,0,0,0,2.18,1.53c.47.05,1.56-2.34,1.36-3.33C255.09,130.06,252.15,129.3,250.61,129.77Z"/><path class="cls-30" d="M244.55,213.63l-.11-.34s-.44-1.43-1-3.69a10.34,10.34,0,0,0,3.42,0c.23,1.46.32,2.52.41,3,0,0,.07.29.15.72C246.45,213.42,245.5,213.54,244.55,213.63Z"/><path class="cls-25" d="M247.19,212.29a9.35,9.35,0,0,1-3,.09c.15.58.61,2,.61,2a33.47,33.47,0,0,0-6.26,1c-3.18.87-5.54,2.13.9,2s8.3-.34,8.31-1.47a19.62,19.62,0,0,0-.49-3.3C247.23,212.49,247.21,212.4,247.19,212.29Z"/><path class="cls-25" d="M257.88,211.44c.17.69.31,1.39.44,2.12,0,0-3.65,2.22-4,3s.15.77,2.14.69a15.79,15.79,0,0,0,4.38-1,20.46,20.46,0,0,0-.27-5.22A9.12,9.12,0,0,1,257.88,211.44Z"/><path class="cls-30" d="M261.13,162.94l.1-.14c.32-.41.62-.85.92-1.27a39.53,39.53,0,0,0,2.17-3.33c1.29-2.21,2.74-4.89,2.62-7.51,0-.42-2.24-10.1-3.29-12.24a10.68,10.68,0,0,1-4,1.55c1,3.14,2.78,11.08,2.36,14.47a18.13,18.13,0,0,1-1.35,4.41c-.51,1.27-1.15,3.86-2.87,3.92a3.52,3.52,0,0,0-.56,0c-.18,0-.3.17-.43.28a4,4,0,0,0-.4.42,4.16,4.16,0,0,0-.64.93,1,1,0,0,0,0,.84c.25.36.75.15.75.18s.18.28.24.3c.28.12.4.09.56,0a.56.56,0,0,0,.81.12.4.4,0,0,0,.52.14,1.54,1.54,0,0,0,.47-.33,11.94,11.94,0,0,0,.83-.91C260.39,164.18,260.72,163.51,261.13,162.94Z"/><path class="cls-22" d="M262.64,134.53c-1.39-2.53-3.75-3.77-4.5-3.07-.29.17-.29.41-.29.69.19,3.52,1.16,7,1.45,10.46,3,.42,4.2-.83,5.65-1.57A39.23,39.23,0,0,0,262.64,134.53Z"/><path class="cls-35" d="M259.18,141.41q.07.6.12,1.2c3,.42,4.2-.83,5.65-1.57-.15-.49-.29-.95-.43-1.38A7.54,7.54,0,0,1,259.18,141.41Z"/><path class="cls-30" d="M248,122.9a14.86,14.86,0,0,0,.12-2.67c1.86-5,6.92-1.78,8.21.31s-.92,6.36-1.51,7.07a1.83,1.83,0,0,1-.5.4c0,.24,0,.48-.06.62a2.24,2.24,0,0,0,0,1.06c.11.27-1.45,2.18-2.68,1.88-.24-.06-.83-1.17-.6-1.43.37-.43.16-1,0-1.56h-.83C247.33,128.53,247.84,124.52,248,122.9Z"/><path class="cls-37" d="M258.25,120.47a2,2,0,0,0-.08-1.9,5,5,0,0,0-1.36-1.44,2.88,2.88,0,0,0-.89-.53c-1-.3-2,.38-3,.12a6.07,6.07,0,0,1-.8-.32,4.7,4.7,0,0,0-1.4-.27,4.17,4.17,0,0,0-1.37.12l-.16,0a1.41,1.41,0,0,0-1,.56,1.16,1.16,0,0,1-.2.25.19.19,0,0,1-.28,0c-.07-.13.12-.26.15-.41s-.1-.27-.25-.3a.66.66,0,0,0-.41.1,1.71,1.71,0,0,0-.63,2.33,2,2,0,0,0,.55.56,2.5,2.5,0,0,0,1.39.43,4.25,4.25,0,0,0,2.66,1.41,3.7,3.7,0,0,1,1.76.56,1.38,1.38,0,0,1,.61.29h0a5.21,5.21,0,0,0,0,1.31,1.59,1.59,0,0,0,.13.84.32.32,0,0,0,.26.19.35.35,0,0,0,.22-.14c.25-.33.16-.82.32-1.2h.05a.77.77,0,0,1,.77.25.9.9,0,0,1,0,.9.56.56,0,0,1,0,.08c-.09.62-1.17,1-1.31,1.62a1.3,1.3,0,0,0,.3,1.06,1.73,1.73,0,0,0,1,1.43.33.33,0,0,0,.19,0c.15,0,.18-.23.12-.37-.2-.39-.42-.54-.38-.94h0c.33-.21.49-.83.73-1.14s.7-.71,1-1.13a4.42,4.42,0,0,0,.75-2.54,2.64,2.64,0,0,1,.07-1A8.63,8.63,0,0,1,258.25,120.47Z"/><path class="cls-15" d="M189.56,113.52c-.9-1.75.8-5.39,3.33-7,.22-.14,1.13-.84,2-1.59h0a21.42,21.42,0,0,0,4.73-5.71c1.69-3.76-4.68-9.48-5.9-10.53a.35.35,0,0,1-.09-.42A1.93,1.93,0,0,1,195,87.11a.22.22,0,0,1,.17.06c.27.27.92,1,1.21,1.22,2,1.56,9.81,6.76,7.47,12.58a23.87,23.87,0,0,1-5.27,7.09l0,0c-1.15,1.48-2.21,3-3,3.78C192.75,114.69,190.36,115.09,189.56,113.52Z"/><path class="cls-15" d="M187.37,111.57c-.06-2-3.31-4.33-6.31-4.53-.26,0-1.4-.19-2.53-.42h0a21.53,21.53,0,0,1-6.9-2.71c-3.64-2.74-.26-12-.26-12a5.75,5.75,0,0,1,.71-1.18c.57-.64-1.37-1.66-1.67-1-.43.88-1.22,1.9-1.7,3-1,2.35-4.78,10.79.08,14.75a23.52,23.52,0,0,0,8.05,3.67c1.72.74,3.38,1.55,4.47,1.86C185.14,114.14,187.42,113.33,187.37,111.57Z"/><path class="cls-38" d="M170.49,89.69a4.24,4.24,0,0,0,.29-1.7,11.82,11.82,0,0,1,1.47-3.21,4.05,4.05,0,0,1,.61-.86.59.59,0,0,1,.18-.13.17.17,0,0,1,.22.09.06.06,0,0,1,0,0l0,0a.37.37,0,0,1,.13-.17.16.16,0,0,1,.24,0,.36.36,0,0,1,.07.19.44.44,0,0,1,.12-.18.18.18,0,0,1,.24,0,.74.74,0,0,1,.09.44l0,0a.18.18,0,0,1,0-.07.18.18,0,0,1,.25,0,1,1,0,0,1,.07.65,1.89,1.89,0,0,1,0,.42l-.18,1a.5.5,0,0,0,0,.12l-.1.55c.15,0,.72-.6,1.07.13-1.19.58-1.84,2.58-2.68,3.06a1.75,1.75,0,0,0-.59.56C171.43,90.81,170.78,90.23,170.49,89.69Z"/><path class="cls-38" d="M195.05,87.52a.37.37,0,0,0,0-.34,4.45,4.45,0,0,1-.49-1.46,12,12,0,0,0-2-2.9,3.7,3.7,0,0,0-.75-.73.42.42,0,0,0-.2-.1.18.18,0,0,0-.21.13s0,0,0,0l0,0a.52.52,0,0,0-.16-.14.18.18,0,0,0-.24.06.6.6,0,0,0,0,.2.36.36,0,0,0-.15-.15.17.17,0,0,0-.23,0,.68.68,0,0,0,0,.45l0,0-.06-.06a.18.18,0,0,0-.24.06.94.94,0,0,0,.05.65,1.31,1.31,0,0,0,.1.4l.36.95a.49.49,0,0,0,0,.11l.2.52c-.14,0-.7-.37-1,.13a.18.18,0,0,0,.09.25c1.2.45,2.15,2.17,3,2.48a1.53,1.53,0,0,1,.64.39.16.16,0,0,0,.11,0C194.37,88.56,194.83,88,195.05,87.52Z"/><path class="cls-39" d="M180.14,114.42c.1-.75.2-1.5.29-2.26s-.2-4.74-1.25-5.36c0,0,0,0,0,0a1.33,1.33,0,0,1,.5-.15,25.28,25.28,0,0,1,4.44-.25,8.78,8.78,0,0,1,3.54-.15,10.41,10.41,0,0,1,2,.48c.85.06,2.35-.26,3.21-.2a5.1,5.1,0,0,0-.12,2.93c.4,1.4,1.72,11,2.21,14.27a20.5,20.5,0,0,1,.23,7.44c-.16.73.12,1.48-.36,2a5.2,5.2,0,0,1-2.92,1.44,17.64,17.64,0,0,1-13-2.11C178.44,132.27,178.73,119.57,180.14,114.42Z"/><path class="cls-10" d="M195,123.71c-.49-3.23-1.81-12.87-2.21-14.27a5.1,5.1,0,0,1,.12-2.93c-.68-.05-1.77.15-2.62.19a34,34,0,0,1-.4,7.18,31.49,31.49,0,0,1-2,8.06,14.55,14.55,0,0,1-9.13,7.88,8.54,8.54,0,0,0,.2,2.71,17.64,17.64,0,0,0,13,2.11,5.2,5.2,0,0,0,2.92-1.44c.48-.57.2-1.32.36-2A20.5,20.5,0,0,0,195,123.71Z"/><path class="cls-40" d="M195.54,126.47s-3.56,4.41-17.37.24l.11,8.37H196Z"/><path class="cls-33" d="M177.42,136a11.2,11.2,0,0,1-1.95-7,2.88,2.88,0,0,1,.38-1.45c.49-.71.66-1,1.52-1A9.18,9.18,0,0,1,181,127.7c1.87,1.3,2.9,3.65,5,4.63a4.64,4.64,0,0,0,4.92-.64c1.81-1.55,3.55-5.27,5.82-6,1.54-.49,2.25,1.28,2.67,2.84a6.06,6.06,0,0,1-.79,4,32.67,32.67,0,0,1-1.68,3.43Z"/><path class="cls-41" d="M192.54,154.78c-.17,1.64-.66,4.44-.35,5.05.77,1.45,1.59.85,2-.47.28-.9.57-3.23.83-4.29A8.47,8.47,0,0,1,192.54,154.78Z"/><path class="cls-41" d="M177.76,154.85c.22,1.55.61,5,1.25,5.4,1,.64,1.13.66,1.43-.64.13-.59-.29-4-.35-5.18A11.83,11.83,0,0,1,177.76,154.85Z"/><path class="cls-42" d="M198.37,125.36c-2.88-.45-3,3.46-3.46,6.45s-.8,6.12-1.12,9.19c-.37,3.65-.83,7-1.22,11.11-.06.64-.22,1.74-.36,2.92a11.46,11.46,0,0,0,3,.38c.42-1.73.77-3.32.93-4,1.67-7.21,4.36-16.14,4.85-21.2C201.25,127.83,200.36,125.68,198.37,125.36Z"/><path class="cls-42" d="M177.62,155.26a13.9,13.9,0,0,0,2.78-.38c-.37-5.92-.21-12.69-.29-18.61,0-.7,0-1.44,0-2.19a13.41,13.41,0,0,0-.81-4.92c-.69-1.56-1.7-2.88-3.08-1.82-1.05.8-1.38,2.53-1.48,4.07-.51,7.94,2.2,15.49,2.86,23.37C177.58,154.91,177.6,155.07,177.62,155.26Z"/><path class="cls-43" d="M190.93,160.78a7.73,7.73,0,0,1,.79-2.87,2.65,2.65,0,0,1,.57-.93,1.68,1.68,0,0,1,1.45-.22.85.85,0,0,1,.43.17c.72.71.9,3.9.07,4.65C193.63,162.15,190.92,161.8,190.93,160.78Z"/><path class="cls-43" d="M181.37,160.51a1.55,1.55,0,0,1,.09.57.94.94,0,0,1-.91.77l-2.31.37a.45.45,0,0,1-.2,0c-.23-.08-.28-.5-.28-.84,0-1.1,0-2.2.13-3.3a1.74,1.74,0,0,1,.18-.76,1.39,1.39,0,0,1,2.06-.14A11.45,11.45,0,0,1,181.37,160.51Z"/><path class="cls-15" d="M184.14,106.38s.81,1.74,2,1.83,2.64.34,3.54-1.5A7.92,7.92,0,0,0,184.14,106.38Z"/><path class="cls-44" d="M190.46,102.51a2.94,2.94,0,0,1-.91,1.33,3.92,3.92,0,0,1-2.46.42,4.48,4.48,0,0,1-2.77-.77,3,3,0,0,1-.79-1.34,6.17,6.17,0,0,1,.63-5.11,2.22,2.22,0,0,1,.66-.74,2.46,2.46,0,0,1,1.29-.33,5.25,5.25,0,0,1,3.24,1,4.59,4.59,0,0,1,1.76,2.64A5.63,5.63,0,0,1,190.46,102.51Z"/><path class="cls-38" d="M188.76,106.8a17,17,0,0,1-.37-3.54c-1,1.81-1.88.72-2.7-.61a20.86,20.86,0,0,1-.84,3.9A2.63,2.63,0,0,0,188.76,106.8Z"/><path class="cls-45" d="M188.32,104.84a2.7,2.7,0,0,1-.35.6,1.79,1.79,0,0,1-1.08.67,1.52,1.52,0,0,1-1.35-.52c-.12-.11-.23-.23-.34-.35a13.36,13.36,0,0,0,.49-2.59c.82,1.33,1.69,2.42,2.7.61-.07.11,0,.42,0,.55s0,.4,0,.6A1,1,0,0,1,188.32,104.84Z"/><path class="cls-38" d="M190.55,101a6.44,6.44,0,0,1-1.11,2.67A3.15,3.15,0,0,1,187,105a3.32,3.32,0,0,1-2.75-2.16,9,9,0,0,1-.49-3.62,5.82,5.82,0,0,1,.61-3,2.33,2.33,0,0,1,.8-.79,2.87,2.87,0,0,1,.76-.27,4.37,4.37,0,0,1,3.31.59C191.08,97,191,99.06,190.55,101Z"/><path class="cls-46" d="M183,96.25a1.85,1.85,0,0,1-.44-1.22c0-.15.12-.34.25-.27l.06.29c.19.07.39-.09.54-.23s.35-.34.52-.52a3.42,3.42,0,0,1,.36-.4l.07-.09A5.41,5.41,0,0,1,185,93a3.37,3.37,0,0,1,2.72-.58,5.05,5.05,0,0,1,1.72.42,2.11,2.11,0,0,1,1.14,1.29.76.76,0,0,1,0,.21,3.78,3.78,0,0,1,1.37,4.1,3.53,3.53,0,0,0-.37,1.5c-.06.3-.11.59-.15.89a.56.56,0,0,1-.79.09.85.85,0,0,1-.14-.63c0-.66.07-1.32.1-2a.87.87,0,0,0,0-.36.84.84,0,0,0-.25-.28,3.4,3.4,0,0,1-.9-1.22,4.3,4.3,0,0,1-1.41.79,6,6,0,0,1-2.83.07,6.66,6.66,0,0,1-.77-.19c-.12.91-.23,1.82-.34,2.73,0,.34-.15.75-.48.82a.58.58,0,0,1-.58-.29,1.89,1.89,0,0,1-.17-.67,10.41,10.41,0,0,1,.13-3.39A.24.24,0,0,0,183,96.25Z"/><path class="cls-45" d="M190.28,101.43c.07-.51.23-1,.27-1.55a.34.34,0,0,1,.22,0,.36.36,0,0,1,.25.06.59.59,0,0,1,.18.42,3,3,0,0,1-.12,1.55,1.67,1.67,0,0,1-1,1,.22.22,0,0,1-.16,0A7.44,7.44,0,0,0,190.28,101.43Z"/><path class="cls-45" d="M183.11,99.78a.57.57,0,0,1,.24-.39.42.42,0,0,1,.25,0,.74.74,0,0,1,.48.32l0,0c0,.3,0,.6-.07.9a9.93,9.93,0,0,0,0,1.54,3,3,0,0,0,.07.43.9.9,0,0,1-.21-.08,1.65,1.65,0,0,1-.86-1.17A3,3,0,0,1,183.11,99.78Z"/><path class="cls-44" d="M177.77,161.65a4.18,4.18,0,0,0,1.67,0,3.83,3.83,0,0,0,1.64-.6c.2-.26.43-.21.38,0s-.11.65-1.06.8a6.19,6.19,0,0,1-1.89.35A.54.54,0,0,1,177.77,161.65Z"/><path class="cls-44" d="M191,160.46a2.82,2.82,0,0,0,1.5.88,3.23,3.23,0,0,0,2-.12s-.08.88-2.08.57S191,160.46,191,160.46Z"/><path class="cls-47" d="M33.19,96.56a.76.76,0,0,1,.39.28h0a.27.27,0,0,1,0-.09.18.18,0,0,1,.19-.17c.19,0,.38.25.53.46a1.49,1.49,0,0,1,.28.34l.58.9.07.1.32.5c.12-.11.13-1,.93-.68-.51,1.32.45,3.33.14,4.31a1,1,0,0,0,0,.94c.24.59-1.25.54-1.8.73a4,4,0,0,0-1.11-1.92,12.45,12.45,0,0,1-1.2-3.55,4.1,4.1,0,0,1-.14-1.1.45.45,0,0,1,0-.23.18.18,0,0,1,.24-.1l0,0s0,0,0-.06a.6.6,0,0,1,0-.23.18.18,0,0,1,.21-.16A.41.41,0,0,1,33,97a.56.56,0,0,1,0-.22A.18.18,0,0,1,33.19,96.56Z"/><path class="cls-39" d="M34.64,119.57c-.41,1-4.18,6.57-6.54,10a36.23,36.23,0,0,1,5.33,3c1.39-3,3.72-6.42,4.38-7.64a10.53,10.53,0,0,0,1.56-6.24c-.29-2.14-2.7-14.85-2.75-15.06a6,6,0,0,0-1.92.11C34.73,103.92,35.25,118.07,34.64,119.57Z"/><path class="cls-48" d="M36.82,104.66c-.12-.62-.19-1-.2-1a6,6,0,0,0-1.92.11s0,.5,0,1.25A6.32,6.32,0,0,1,36.82,104.66Z"/><path class="cls-47" d="M43.05,210.41a30.74,30.74,0,0,0,.12,6.06c-.42,1.79-3.41-.16-3.39-.48.13-1.89.2-3.78.24-5.67A17.06,17.06,0,0,0,43.05,210.41Z"/><path class="cls-47" d="M44.24,122.74c-.13.37-.52.43-1.53.65.21.91,1.81,4,.74,4.32s-8.2-3.61-8.9-4.54a6.33,6.33,0,0,1-1.06-3.29,5.84,5.84,0,0,1,.45-3.23,5,5,0,0,1,1.72-1.82c2.19-1.48,3.84-2,6.24-.87S44.92,120.77,44.24,122.74Z"/><path class="cls-47" d="M63,95.43a.79.79,0,0,0-.37.29h0v-.09a.18.18,0,0,0-.21-.16c-.18,0-.36.26-.5.47a1.5,1.5,0,0,0-.26.36l-.55.92-.06.11-.3.51c-.12-.1-.17-1-1-.63.57,1.29-.29,3.34,0,4.31,0,0,.21.21,0,.89s1.36.52,1.92.69a3.93,3.93,0,0,1,1-2,12.59,12.59,0,0,0,1-3.61,4.07,4.07,0,0,0,.1-1.1.86.86,0,0,0-.05-.23.19.19,0,0,0-.25-.08l0,0a.14.14,0,0,1,0-.06.87.87,0,0,0,0-.23.2.2,0,0,0-.22-.15.45.45,0,0,0-.17.11.82.82,0,0,0,0-.22A.18.18,0,0,0,63,95.43Z"/><path class="cls-39" d="M61.83,102.63l-.06,0a4.2,4.2,0,0,0-1.89-.37c-.17,1.08-3.42,13.18-4.4,14.41-.84,1-8.48,7.22-10.94,9.2a6.31,6.31,0,0,0-1.14,2.73c-.17,2.62.71,4.77,1.13,7.7.51,3.52,1.74,3.63,1.87,2.24a21,21,0,0,1,2.66-7.65c1.76-3,6.67-6.92,7.93-8.18a10.5,10.5,0,0,0,3.27-5.54c.34-2.12,1.37-12.18,1.61-14.48Z"/><path class="cls-48" d="M61.74,103.87c0-.51.1-.92.13-1.21l0,0-.06,0a4.2,4.2,0,0,0-1.89-.37c0,.17-.13.63-.29,1.27A9.39,9.39,0,0,1,61.74,103.87Z"/><path class="cls-39" d="M48.43,132q.3-.59.63-1.17a20.26,20.26,0,0,1,3.09-3.72,10.28,10.28,0,0,1-2.9-5.12L45,125.47a3.37,3.37,0,0,0-1.12.16l-2.93.73a6,6,0,0,0-.81.25c-.42-.63-.2-1.56-.77-2.1-4,.23-8,4.34-8.2,11.24v.11a3.09,3.09,0,0,0-.76,1.74,8.07,8.07,0,0,0,.39,2.83,55.25,55.25,0,0,1,1.43,7.85l.35,4.09a.54.54,0,0,1,.15.15.21.21,0,0,1,0,.06l0,0H46.36L47.43,140c.08-.19.16-.38.25-.57a17.67,17.67,0,0,0,1.19-2.76,7.36,7.36,0,0,0-.29-4.3C48.54,132.28,48.48,132.15,48.43,132Z"/><path class="cls-10" d="M39.81,125.5a2.93,2.93,0,0,0,.33,1.11,6,6,0,0,1,.81-.25h0a5.6,5.6,0,0,0,.55.27l0,0-.15-.06c-.23-.12-.46-.19,0,0a.86.86,0,0,1,.19.11l.09.07,0,0a.77.77,0,0,0,.06.15c.09.17.21.37.31.54l.06.09a.47.47,0,0,0,0,.09,19.42,19.42,0,0,1,.66,2.49c.08.44.2,1.58.09.48,0,.41.09.82.13,1.24.12,1.49.15,3,.15,4.49,0,.7,0,1.39,0,2.09,0,.36-.06.73-.09,1.09v.15l0,.23a25.55,25.55,0,0,1-1.22,4.58s-.25.51-.38.76-.42.76-.65,1.12-.65.83-.1.21c-.24.27-.47.55-.72.81s-1.24,1-.38.42c-.31.19-.6.41-.91.58l-.39.2c-.35.06-.72.23-1.07.31-.18,0-.55.09-.64.1l-.51,0c-.47,0-.94,0-1.42,0-.31,0-1.6-.23-.75-.05-.44-.09-.88-.17-1.31-.28l-.34-.1,0-.37a55.25,55.25,0,0,0-1.43-7.85,8.07,8.07,0,0,1-.39-2.83,3.09,3.09,0,0,1,.76-1.74v-.11c.17-6.69,4-10.75,7.82-11.21A5.34,5.34,0,0,0,39.81,125.5Z"/><path class="cls-44" d="M47.64,216.24a24.56,24.56,0,0,0-4.63-1,2.89,2.89,0,0,1-3.17,0,3,3,0,0,0-.18,1.77c.33,1.08,1.64,1.05,7.2,1.22S50.39,217.11,47.64,216.24Z"/><path class="cls-47" d="M13.23,189.55a24.24,24.24,0,0,0-4.73-.2c-1.73-.63.55-3.37.87-3.31,1.33.25,2.66.46,4,.66A6.79,6.79,0,0,0,13.23,189.55Z"/><path class="cls-44" d="M8.2,193.82c1.16-2.58,1.89-4.39,1.91-4.49-.64-2,.46-2.46.33-3.05a4.12,4.12,0,0,0-2-.48c-1.11.2-1.24,1.51-2.06,7S7,196.45,8.2,193.82Z"/><path class="cls-49" d="M7.65,192.86c.7-2.8,1.15-7.13.76-7.06-1.11.2-1.24,1.51-2.06,7S6.87,196,7.65,192.86Z"/><path class="cls-50" d="M12.37,186.57c7.27.32,18.74.17,19.71-1.9a2.87,2.87,0,0,0,.42-1.45c-.14-1.84-.52-3.72-.82-5.56-.6-3.67-.8-7.12-1.47-10.78a24.68,24.68,0,0,1,.1-9.8c.18-.81,2.05-5.09,2.43-5.09l13.63-.07a51.58,51.58,0,0,1,1.43,9.8c.29,7.14-.82,14.26-1.3,21.37-.39,5.87-1.4,11.06-2.31,16.88A102.37,102.37,0,0,0,43,212.7a6.12,6.12,0,0,1-3,0c.09-2.47.11-4.93.08-7.41q-.12-9-.22-17.91c0-2.88-.07-5.77-.1-8.65,0-1.39,0-2.79-.05-4.19l0-2.14a5.69,5.69,0,0,0,0-1.8c-.1-.19-.2-.4-.29-.62v.18c-.12,2.66-.28,5.32-.46,8,0,.84-.08,1.75-.18,2.7a.57.57,0,0,0,0,.13.5.5,0,0,0,0,.12c-.42,3.52-1.47,7.34-3.42,8.68-4.68,3.2-15.93,1-23.17-.32C11.94,188.25,12.39,187.8,12.37,186.57Z"/><path class="cls-51" d="M45.16,193.72c-2.16.09-1.16-3.83-1.18-5.05,0-1.71-.1-3.41-.11-5.12,0-5.82.51-11.58.67-17.39A30.08,30.08,0,0,0,41.74,152l4.63,0a51.58,51.58,0,0,1,1.43,9.8c.29,7.14-.82,14.26-1.3,21.37C46.27,186.53,46.12,190.4,45.16,193.72Z"/><path class="cls-52" d="M44.06,115.59a1,1,0,0,0,.15-.51,1.05,1.05,0,0,0-.21-.5,6.87,6.87,0,0,0-5.86-2.79,8.89,8.89,0,0,0-6,2.81,5.52,5.52,0,0,0-1.54,2.75c-.16.94.35,1.58.55,2.33a10.72,10.72,0,0,1-.38,1.69c-.31.4-.71.75-1,1.11a19.31,19.31,0,0,1-2.24.58,4.23,4.23,0,0,0-2.69,3,6.15,6.15,0,0,0,.52,4.12,3.4,3.4,0,0,1,.57,2c-.14.69-.76,1.17-1.22,1.71a4.1,4.1,0,0,0-.48,4.57,3.71,3.71,0,0,0,3.86,1.73,3.3,3.3,0,0,0,1.9,1.2c5.14,1.43,12-1.48,13.24-7,.42-2-.29-3.9-1.11-5.81a1.79,1.79,0,0,0,.2-1.07c-.1-.71-.67-1.38-.48-2.08a5.47,5.47,0,0,1,.33-.69,1.75,1.75,0,0,0-.27-1.81,2.39,2.39,0,0,1-.48-.58,1.9,1.9,0,0,1,0-.92,3.17,3.17,0,0,0-.49-1.94A11.58,11.58,0,0,0,44.06,115.59Z"/><path class="cls-29" d="M160.1,240.93c.19-.3.72,0,.72,0a.28.28,0,0,1,.06-.23c.12-.14.66,0,1.1.11a11.61,11.61,0,0,1,1.57,1,7.89,7.89,0,0,0,.92.46c.6.23.67,0,.53-.3a2.2,2.2,0,0,1-.16-1c0-.16.2-.2.56.34s1.09,1.5,1.48,2a3.11,3.11,0,0,1,.59,1l.89.73-1,1a11.51,11.51,0,0,0-1.18-.85,19.31,19.31,0,0,0-1.93-1.31c-.76-.36-2.54-1.1-3.07-1.4a2.27,2.27,0,0,1-.72-.83C160.16,241.39,160,241.08,160.1,240.93Z"/><path class="cls-10" d="M188.82,238.86c-2.21-1-6.73,4-7.68,4.89a23.19,23.19,0,0,1-5.31,4.06c-2.6,1.05-6.33-1.89-8.42-3.8a4.26,4.26,0,0,0-.83,1.57c.26.37.76.84,1,1.2a20.87,20.87,0,0,0,2.2,2.31,12.06,12.06,0,0,0,2.72,2.1,6.15,6.15,0,0,0,3.19.79,5.15,5.15,0,0,0,1.55-.31c2-.7,8.91-6.75,9.66-7.44C189.58,241.8,190.26,239.53,188.82,238.86Z"/><path class="cls-10" d="M179,247.85a3.58,3.58,0,0,1,.23-2.41c.63-.53,1.27-1.1,1.88-1.69,1-.9,5.47-5.9,7.68-4.89,1.44.67.76,2.94-1.89,5.37-.49.45-3.64,3.2-6.31,5.24A4.05,4.05,0,0,1,179,247.85Z"/><path class="cls-53" d="M171.72,328.66a25.87,25.87,0,0,1,4.85-1.09,3.05,3.05,0,0,0,3.32,0,4.49,4.49,0,0,1,.11,2.28c-.35,1.13-1.63.68-7.47.85S168.83,329.56,171.72,328.66Z"/><path class="cls-53" d="M184.27,328.62a26,26,0,0,1,4.86-1.09,3,3,0,0,0,3.32,0,5.13,5.13,0,0,1,.26,2.36c-.35,1.13-1.79.6-7.62.78S181.39,329.53,184.27,328.62Z"/><path class="cls-29" d="M192.43,326l.07,1.66a14.69,14.69,0,0,1-4.57,1.3s.89-1-.3-1.18c0,0,3.27-.87,3.42-1.9S192.43,326,192.43,326Z"/><path class="cls-29" d="M180.18,325.66l-.22,2.07a14.55,14.55,0,0,1-4.51,1.29s.9-1.08-.28-1.24c0,0,2.76-.19,2.83-1.91C178.05,324.83,180.18,325.66,180.18,325.66Z"/><path class="cls-29" d="M195.05,292.43s-2.19,32.87-2.61,34.13c-.56.64-1.91,0-1.91,0l-.85-38.63,3.37-1.15Z"/><path class="cls-29" d="M178,326.34s2.14-26.29,1.29-38.39l1.12-4.84,4.94,3.35s-.67,22.22-5.32,40.06C180,326.52,178.67,327.07,178,326.34Z"/><path class="cls-3" d="M195.31,293.3a1.27,1.27,0,0,1-.26.76,1.35,1.35,0,0,1-1,.28l-15.89,0q1.56-15,3.13-30.07a13.38,13.38,0,0,1,.65-3.39,7.09,7.09,0,0,1,8.83-3.9c2.74,1,3.38,4,3.89,6.6A96.38,96.38,0,0,1,195.31,293.3Z"/><path class="cls-54" d="M186,264.77a1.09,1.09,0,0,0-.23-.09.85.85,0,0,0-1-.23c-.73.28-1.75-.3-2.45-.49-.33-.1-.67-.18-1-.26a11.47,11.47,0,0,1,.59-2.85,7.09,7.09,0,0,1,8.83-3.9c2.74,1,3.38,4,3.89,6.6a84.33,84.33,0,0,1,1.49,15.6C194.48,273.18,191.52,267.62,186,264.77Z"/><path class="cls-39" d="M182.26,257.59a48.94,48.94,0,0,1,.09-7.18c-.61-1-2.25-4-1.67-5.41a16.61,16.61,0,0,1,1.56-2.76c1.47-3.62,1-4.1,3.33-4.88,2.59-.87,4.25-.77,6.35.82,2.51,1.91,3,6,2,7.8a14,14,0,0,0-1.32,5.13,21.92,21.92,0,0,0-.24,3.52c.07,1.74,2.09,5.64,2.46,9.61a3,3,0,0,1-4.1-.91c-.63,2.58-7.91,4.89-9.62,1.84C180.77,264.64,182.32,258.19,182.26,257.59Z"/><path class="cls-39" d="M182.26,257.59a48.94,48.94,0,0,1,.09-7.18c-.61-1-2.25-4-1.67-5.41a16.22,16.22,0,0,1,1.34-2.44,8.25,8.25,0,0,0,.56,2,6.55,6.55,0,0,0,1.7,2.37,23.51,23.51,0,0,0,3.39,6.56c.8,1.12,1.58,2.25,2.38,3.36a9.33,9.33,0,0,0,3.28,3.21,3.91,3.91,0,0,0,.65.24,22,22,0,0,1,.8,3.92,3,3,0,0,1-4.1-.91c-.63,2.58-7.91,4.89-9.62,1.84C180.77,264.64,182.32,258.19,182.26,257.59Z"/><path class="cls-29" d="M185.76,235.45a2.33,2.33,0,0,1-.91-.16,2.22,2.22,0,0,1-.86-.78,7.43,7.43,0,0,1-1.28-3.91,14.8,14.8,0,0,1,.42-4.13,2.4,2.4,0,0,1,.21-.64,1.74,1.74,0,0,1,.68-.61,5.29,5.29,0,0,1,3.84-.14,4.9,4.9,0,0,1,1.79.8,4.85,4.85,0,0,1,2,4.13,11.9,11.9,0,0,1-.28,2.66,3.11,3.11,0,0,1-.48,1.14,4.75,4.75,0,0,1-2.19,1.19A9,9,0,0,1,185.76,235.45Z"/><path class="cls-29" d="M189.44,237.63c.05.46-3,.41-3,.28a28.21,28.21,0,0,0-1.05-5.25,10.15,10.15,0,0,1,4.29-.33C189.9,232.38,189.37,237,189.44,237.63Z"/><path class="cls-29" d="M190.35,237.59c0,.28-.36.42-.63.5a27.7,27.7,0,0,0-4.65,1.68,3.67,3.67,0,0,1,0-2,8.31,8.31,0,0,1,2.17-.68C188.13,236.87,190.39,237.32,190.35,237.59Z"/><path class="cls-43" d="M183.24,224.36a9.69,9.69,0,0,1,4.8-1.77,6.14,6.14,0,0,1,4.72,1.71,4.55,4.55,0,0,1,1.07,4.54,2.81,2.81,0,0,1,.65,0,3.56,3.56,0,0,1,1.63.42,2.94,2.94,0,0,1,.81,3.84v0a1.83,1.83,0,0,1,1.11,1.53,2.15,2.15,0,0,1-1.12,2.24,2.11,2.11,0,0,1-1.69,0,2.52,2.52,0,0,1-1.9,1.7,3.81,3.81,0,0,1-4.38-5.37c.28-.58.71-1.08,1-1.64.74-1.34.3-2.09-.67-2.49l0,0a5.35,5.35,0,0,0-.81,1.57,1.4,1.4,0,0,1-.27-.76,2.79,2.79,0,0,0-.71-1.29,7.12,7.12,0,0,1-2.48-1.35C184.07,226.51,183.07,225.52,183.24,224.36Z"/><path class="cls-29" d="M174.19,268.83s-1.35.9-2.18,1.53c-.4.32-.45.54,0,.53s1.14-.3,1.27-.21a1,1,0,0,1,0,1.12,4.53,4.53,0,0,0-1.14,2,2.67,2.67,0,0,0,.22,1.74c.16,0,.31,0,.58-.82a23.85,23.85,0,0,1,2.91-5.15,9,9,0,0,1,1.61-1.71l-1.29-.9A9.61,9.61,0,0,1,174.19,268.83Z"/><path class="cls-10" d="M187.31,257.15a2.31,2.31,0,0,0,.58-1h0c.41-1.17,1.69-4.11,3-6.86h0v0c.11-.24.23-.49.35-.73,1.17-2.35,2.36-3.72,2.66-5.11.58-2.68-.81-3.42-1.82-3.47a3.72,3.72,0,0,0-1.75.59c-2.1,2.52-2.11,3.39-3.52,6.6h0c-1.24,2.86-2.51,5.93-2.87,7.23-1,1.36-1.67,3.25-2.5,4.64-1,1.59-5.86,8.38-6.39,8.95a3.81,3.81,0,0,0,1.26,1.17c.51-.31,3.4-3.59,3.82-4A40.29,40.29,0,0,0,187.31,257.15Z"/><path class="cls-10" d="M181.47,259c.83-1.39,1.53-3.28,2.5-4.64.36-1.3,1.63-4.37,2.87-7.23h0c.31-.71.55-1.3.76-1.82.09.2.19.39.3.59.13.49.28,1,.46,1.45a8.34,8.34,0,0,0,2,3.09c-1.1,2.37-2.09,4.69-2.44,5.69h0a2.31,2.31,0,0,1-.58,1,40.29,40.29,0,0,1-7.15,8c-.42.38-3.31,3.66-3.82,4a3.81,3.81,0,0,1-1.26-1.17C175.61,267.37,180.51,260.58,181.47,259Z"/><path class="cls-34" d="M92.73,329c.44-.35,1.11-.51,1.55-.86.22-.18.72-.47.74-.66A5.66,5.66,0,0,0,95,326a5,5,0,0,0,2.73-.42c0,.27,0,1.07,0,1.33A9.77,9.77,0,0,1,98,328.2a2.57,2.57,0,0,1-.33,2.1,2.1,2.1,0,0,1-1.57.45c-.64,0-2.35.09-2.55.07C92.93,330.76,90.89,330.44,92.73,329Z"/><path class="cls-55" d="M97.94,329.84a1.21,1.21,0,0,1-.28.46,2.1,2.1,0,0,1-1.57.45c-.64,0-3.24.07-3.44.05-.43,0-.67-.19-.67-.8C94.23,329.14,95.25,330.4,97.94,329.84Z"/><path class="cls-34" d="M102.85,266s-1.71,20.5-2.44,26-2.68,34-2.68,34l-1.33.76L95,326.51s-1.26-22.79-1.76-27.19-1.92-27.8-1.23-35C92.44,259.88,99.52,251.25,102.85,266Z"/><path class="cls-33" d="M93.16,298.43c-.52-5.51-1.58-23.91-1.26-32.22l7.54,2.05C99.38,272,94.32,291.53,93.16,298.43Z"/><path class="cls-34" d="M110.7,327.57l.71.15a3.83,3.83,0,0,0,2.68-.54c0,.13,0,.2,0,.2a36.07,36.07,0,0,1,6.74,1.42c3.4,1.09,3.58,2.28-1,2-8.34.18-8.92.21-8.94-1.86C110.85,328.58,110.77,328.09,110.7,327.57Z"/><path class="cls-55" d="M122.17,330a1,1,0,0,0,.73-.28c1.08.74.25,1.31-3.1,1.12a62.1,62.1,0,0,1-8.19,0c-.84-.15-.54-.49-.67-1C114.68,329.87,118.42,330,122.17,330Z"/><path class="cls-34" d="M111.39,267s1,21.16,1,26.67S114,326.73,114,326.73l-1.72.8-1.68-.45s-3.24-19.93-4.29-24.23-4.82-27.46-5.44-31.83S106.27,252.83,111.39,267Z"/><path class="cls-41" d="M114,326.56c0,.37.09.67.11.78-.72,1.16-2.2.83-3.4.3,0-.13-.11-.64-.13-.77C111.76,327.11,113,327.32,114,326.56Z"/><path class="cls-41" d="M97.73,325.93c0,.07,0,.76,0,.83a3.15,3.15,0,0,1-2.26.65l-.43-.14c0-.2,0-.79,0-1A3.87,3.87,0,0,0,97.73,325.93Z"/><path class="cls-56" d="M132.53,244.59a.15.15,0,0,0-.21,0c-2.51,2.06-7.8,5.89-10.33,4.61a21.12,21.12,0,0,1-5.38-4.93,25.2,25.2,0,0,1-1.47-2.05c-1.47-2.56-5.56-5.44-7.32-4.64-1.58.72-.7,4.11,1.94,7,.74.81,2.16,1.92,3.56,3.12l0,0a23.32,23.32,0,0,0,6.7,5.5,5.92,5.92,0,0,0,1.65.49,6.73,6.73,0,0,0,3.54-.56,13.07,13.07,0,0,0,3.16-2c.91-.77,3.32-2.91,4.11-3.8.23-.26.81-.83,1.1-1.16a.14.14,0,0,0,0-.19C133.25,245.53,132.87,245.06,132.53,244.59Z"/><path class="cls-56" d="M93.37,251.59c1.72-12.37.63-13.55,3.25-15a15.05,15.05,0,0,1,10.74-.61,8.29,8.29,0,0,1,2.64,1.68c2.54,2.4,2.94,5.51,1.07,11-1.72,5.09.32,18.31.32,18.31-6.19,2.7-19.6,1.35-19.6,1.35S92.09,260.85,93.37,251.59Z"/><path class="cls-57" d="M98.9,265.55c-.74-3.08-1.47-6.15-1.91-9.29a75.08,75.08,0,0,1-.68-10c0-2.26-.23-4.64,0-6.94-1.05,1.78-1.78,5.1-2.89,12.32a143.37,143.37,0,0,0-1.58,16.77s3.6.36,7.92.34Q99.28,267.13,98.9,265.55Z"/><path class="cls-58" d="M109.13,224.9a15.21,15.21,0,0,0,.42,2.77c.38,1.66,1.35,5.8-1.5,6.15s-4.22.18-4.91-.5-3.41-4.89-2.33-7.21S106.69,219.91,109.13,224.9Z"/><path class="cls-43" d="M109.33,223a5.11,5.11,0,0,0-1.55-.77,6.33,6.33,0,0,0-1.12-.28,6.42,6.42,0,0,0-4.55.79,1.85,1.85,0,0,0-.82.95,4.5,4.5,0,0,0-.65.59,5.07,5.07,0,0,0-1,4.12,7.5,7.5,0,0,0,3.5,5.2,1.12,1.12,0,0,0,.41.17.65.65,0,0,0,.46-.6,1.31,1.31,0,0,0-.06-.38.65.65,0,0,1-.39-.48c-.11-.44-.5-.85-.63-1.33a1.3,1.3,0,0,1,.47-1.45.78.78,0,0,1,.68-.06c.25.12.28.41.49.54a.42.42,0,0,0,.51-.15c.07-.17-.07-.54-.1-.72-.19-1.1-.82-2.58.22-3.45a4.18,4.18,0,0,1,1.89-.73,4.52,4.52,0,0,1,1,.09c.46,0,1.33-.07,1.59-.53A1.42,1.42,0,0,0,109.33,223Z"/><path class="cls-59" d="M101.87,235.4c.19-.49.26-1,.4-1.52a5.51,5.51,0,0,1,.35-1.2c.26-.47.79-.51,1.27-.61.92-.21,2.29-.22,2.4.78.08.79-.76,2-.2,2.73v1.81a9.88,9.88,0,0,1-4.22.79Z"/><path class="cls-56" d="M100.46,237.15a2.41,2.41,0,0,1,.47-.49,1.83,1.83,0,0,0,.13-.16,2.54,2.54,0,0,0,.62-1h0a11.79,11.79,0,0,0,.58-1.6,4.48,4.48,0,0,0,3.76.49c-.06.35.31,3.09.31,3.09a10.89,10.89,0,0,1-4.51.77,2.28,2.28,0,0,1-1-.24A.67.67,0,0,1,100.46,237.15Z"/><path class="cls-43" d="M110.83,221c-.12-.22-.33-.45-.57-.39s-.29.57-.44.88c-.25.51-1,.47-1.54.35a22.6,22.6,0,0,0-2.81-.58c-1.42-.15-3.57.18-4.12,1.76a1.3,1.3,0,0,0-.08.65,5.06,5.06,0,0,0-2.67,2.56,3,3,0,0,0-.25,1.32,4.47,4.47,0,0,0,.74,1.86A10.69,10.69,0,0,0,101,232a.46.46,0,0,0,.26.15c.33,0,.39-.43.41-.76a3.07,3.07,0,0,1,1.21-2.12c.64-.54,1.38-1,2-1.51a7,7,0,0,0,2-3,6,6,0,0,0,2.43,0,2.61,2.61,0,0,0,1.59-3.72Z"/><path class="cls-58" d="M140.26,241.22a.79.79,0,0,0-.52-.05l0,0,.07-.08a.19.19,0,0,0,0-.28,1.18,1.18,0,0,0-.77,0,1.85,1.85,0,0,0-.48.08l-1.14.33-.13,0-.63.18c0-.17.61-.92-.28-1.24-.53,1.47-2.79,2.46-3.24,3.5a1.69,1.69,0,0,1-.7.88c-.47.34.46,1.34.88,1.56.11,0,.21.11.3,0a4.18,4.18,0,0,1,2.15-.57,13.72,13.72,0,0,0,3.57-2.11,4.18,4.18,0,0,0,.92-.81.71.71,0,0,0,.13-.22.21.21,0,0,0-.13-.25h0l.06,0a.62.62,0,0,0,.18-.18.2.2,0,0,0,0-.28.52.52,0,0,0-.23-.05.58.58,0,0,0,.19-.16A.2.2,0,0,0,140.26,241.22Z"/><rect class="cls-60" x="89.42" y="260.18" width="13.48" height="9.72" transform="translate(-113.74 76.8) rotate(-28.17)"/><rect class="cls-61" x="89.31" y="260.52" width="13.48" height="9.72" transform="translate(-113.91 76.79) rotate(-28.17)"/><rect class="cls-62" x="89.77" y="260.88" width="12.6" height="8.98" transform="translate(-113.91 76.79) rotate(-28.17)"/><path class="cls-56" d="M98.93,237.39c1.11,1.92-.47,6.15-3.1,8.15-.23.18-1.17,1-2.06,1.94h0a24,24,0,0,0-4.72,6.79c-1.71,4.82,7.39,11.94,7.39,11.94s-.25,2.26-1.35,1.5c-2.33-1.63-12.86-8.4-10.75-15.14a26.94,26.94,0,0,1,5.2-8.38c1.15-1.76,2.19-3.54,3-4.5C95.38,236.3,97.94,235.68,98.93,237.39Z"/><path class="cls-58" d="M95.57,268.26c0,.08.05.16.08.23a1.72,1.72,0,0,0,.49.65c.32.29.64.56,1,.82a1.32,1.32,0,0,0,.52.28.4.4,0,0,0,.5-.22.57.57,0,0,0,.81-.24c.16.1.29.12.56,0,.06,0,.23-.23.2-.34s.53.11.73-.29a1.06,1.06,0,0,0-.12-.88,4,4,0,0,0-.78-.87,4.22,4.22,0,0,0-.46-.38.93.93,0,0,0-.48-.23,5.59,5.59,0,0,0-.56.12,1.5,1.5,0,0,1-.73,0,3.5,3.5,0,0,1-.87-.61c-.06-.06-1.37,1.47-1.21,1.58A1.35,1.35,0,0,1,95.57,268.26Z"/></g></g></g></svg>